<svg xmlns="http://www.w3.org/2000/svg" viewBox="0 0 200 400">
  <!-- Golf Cap - Blue baseball cap with brim facing right -->
  <!-- Cap dome -->
  <path d="M62 50 Q65 13 100 10 Q135 13 138 50" fill="#2196F3"/>
  <!-- Cap front panel detail -->
  <path d="M62 50 Q65 17 100 14 Q115 15 120 23" fill="#1E88E5"/>
  <!-- Headband -->
  <path d="M60 50 Q62 45 70 43 Q100 37 130 43 Q138 45 140 50 Q138 55 130 53 Q100 47 70 53 Q62 55 60 50 Z" fill="#1565C0"/>
  <!-- Brim (facing right) -->
  <path d="M110 48 Q140 43 165 50 Q170 53 168 57 Q165 61 160 60 Q140 55 110 55 Z" fill="#1565C0"/>
  <!-- Brim underside shadow -->
  <path d="M110 53 Q140 50 162 57 Q160 60 155 59 Q140 54 110 55 Z" fill="#0D47A1" opacity="0.3"/>
  <!-- Button on top -->
  <circle cx="100" cy="11" r="3" fill="#1565C0"/>
  <!-- Cap stitching detail -->
  <path d="M80 15 Q100 11 120 15" stroke="#BBDEFB" stroke-width="0.8" fill="none" opacity="0.5"/>
</svg>
