<svg xmlns="http://www.w3.org/2000/svg" viewBox="0 0 200 400">
  <!-- Green Polo Shirt - covers torso with collar and short sleeves -->
  <!-- Main torso body -->
  <rect x="60" y="110" width="80" height="110" rx="15" fill="#4CAF50"/>
  <!-- Left short sleeve -->
  <path d="M62 112 Q55 110 46 115 Q40 118 40 130 Q40 150 44 155 Q48 158 55 156 Q62 154 64 148 L64 112 Z" fill="#4CAF50"/>
  <!-- Right short sleeve -->
  <path d="M138 112 Q145 110 154 115 Q160 118 160 130 Q160 150 156 155 Q152 158 145 156 Q138 154 136 148 L136 112 Z" fill="#4CAF50"/>
  <!-- Sleeve hem left -->
  <path d="M44 152 Q52 156 62 150" stroke="#388E3C" stroke-width="1.5" fill="none"/>
  <!-- Sleeve hem right -->
  <path d="M156 152 Q148 156 138 150" stroke="#388E3C" stroke-width="1.5" fill="none"/>
  <!-- Collar -->
  <path d="M82 108 Q85 104 90 102 Q95 100 100 99 Q105 100 110 102 Q115 104 118 108 L114 116 Q110 112 100 110 Q90 112 86 116 Z" fill="#43A047"/>
  <!-- Collar fold left -->
  <path d="M82 108 L86 116 Q84 114 82 112 Z" fill="#388E3C"/>
  <!-- Collar fold right -->
  <path d="M118 108 L114 116 Q116 114 118 112 Z" fill="#388E3C"/>
  <!-- Placket (button line) -->
  <line x1="100" y1="110" x2="100" y2="140" stroke="#388E3C" stroke-width="1.2"/>
  <!-- Buttons -->
  <circle cx="100" cy="116" r="1.8" fill="#FFFFFF" opacity="0.8"/>
  <circle cx="100" cy="126" r="1.8" fill="#FFFFFF" opacity="0.8"/>
  <circle cx="100" cy="136" r="1.8" fill="#FFFFFF" opacity="0.8"/>
  <!-- Shirt bottom hem -->
  <path d="M62 218 Q100 222 138 218" stroke="#388E3C" stroke-width="1.2" fill="none"/>
  <!-- Subtle side seam lines -->
  <line x1="63" y1="130" x2="63" y2="215" stroke="#388E3C" stroke-width="0.6" opacity="0.3"/>
  <line x1="137" y1="130" x2="137" y2="215" stroke="#388E3C" stroke-width="0.6" opacity="0.3"/>
</svg>
